<svg width="57" height="64" viewBox="0 0 57 64" fill="none" xmlns="http://www.w3.org/2000/svg">
<g clip-path="url(#clip0_12336_3047)">
<path d="M38.6551 23.0051C38.7383 23.8688 38.4347 24.7163 37.8215 25.3302C37.2082 25.944 36.3629 26.2475 35.498 26.165C34.7804 26.0956 34.0949 26.4909 33.7957 27.1487C33.4359 27.9389 32.7492 28.5207 31.9117 28.7453C31.0734 28.9698 30.1886 28.8099 29.4832 28.3057C29.3632 28.22 29.2334 28.1564 29.1 28.1056V32C34.5467 31.7977 39.3039 28.8586 42.0394 24.5178L38.6736 22.5728C38.6508 22.7138 38.6409 22.8582 38.6551 23.0051Z" fill="#FF7010"/>
<path d="M25.8399 28.8447C25.5891 28.8447 25.3367 28.812 25.0883 28.7454C24.2508 28.5209 23.5641 27.9391 23.2043 27.1491C22.9047 26.4907 22.2184 26.0962 21.5016 26.165C20.636 26.2467 19.7914 25.9439 19.1785 25.3302C18.5653 24.7163 18.2617 23.8689 18.3449 23.005C18.3591 22.8581 18.3492 22.7138 18.3264 22.5728L14.9606 24.5179C17.6961 28.8587 22.4533 31.7977 27.9 32V28.1057C27.7666 28.1564 27.6368 28.22 27.5168 28.3057C27.0203 28.6603 26.4348 28.8447 25.8399 28.8447Z" fill="#FF7010"/>
<path d="M25.3988 4.41489C24.9086 4.54646 24.507 4.88682 24.2965 5.34917C23.7848 6.47387 22.6086 7.1503 21.3867 7.03085C20.8809 6.98217 20.3859 7.15988 20.0274 7.5192C19.6684 7.87833 19.4906 8.37431 19.5395 8.87987C19.5784 9.28433 19.524 9.67963 19.4036 10.0499L27.9 14.96V5.13955C27.5194 5.05878 27.1503 4.90827 26.8199 4.67236C26.407 4.37715 25.8887 4.2839 25.3988 4.41489ZM25.567 10.9151C24.6613 11.4385 23.5032 11.1279 22.9804 10.2214C22.4575 9.31486 22.7678 8.1557 23.6734 7.63232C24.5791 7.10895 25.7372 7.41955 26.2601 8.32605C26.7829 9.23257 26.4726 10.3917 25.567 10.9151Z" fill="#FF7010"/>
<path d="M17.3617 21.3005C16.5727 20.941 15.9914 20.2539 15.7668 19.4156C15.5422 18.5771 15.7023 17.6909 16.2063 16.9843C16.6258 16.3957 16.6258 15.6047 16.2063 15.0163C15.7023 14.3095 15.5422 13.4233 15.7668 12.5848C15.9914 11.7465 16.5727 11.0594 17.3617 10.6997C17.4959 10.6385 17.6158 10.5578 17.7264 10.4676L14.358 8.521C13.1739 10.7551 12.5 13.2999 12.5 16.0002C12.5 18.7005 13.1739 21.2453 14.358 23.4794L17.7265 21.5328C17.6159 21.4425 17.4959 21.3618 17.3617 21.3005Z" fill="#FF7010"/>
<path d="M31.9117 3.25468C32.7492 3.47911 33.4359 4.06092 33.7957 4.85092C34.0949 5.50936 34.7804 5.90466 35.4984 5.83506C36.3613 5.75198 37.2086 6.05617 37.8215 6.66984C38.4347 7.28371 38.7383 8.13119 38.6551 8.9951C38.6409 9.14197 38.6508 9.28629 38.6736 9.4273L42.0394 7.48218C39.3039 3.14139 34.5467 0.202316 29.1 0V3.89438C29.2334 3.84364 29.3632 3.78003 29.4832 3.69436C30.1886 3.19017 31.0734 3.02966 31.9117 3.25468Z" fill="#FF7010"/>
<path d="M16.9258 19.1043C17.057 19.5948 17.3973 19.9969 17.8594 20.2073C18.2287 20.3758 18.5435 20.6205 18.8037 20.91L27.3001 16L18.8036 11.0898C18.5435 11.3793 18.2286 11.624 17.8594 11.7924C17.3973 12.003 17.057 12.4051 16.9258 12.8956C16.7945 13.3861 16.8883 13.9048 17.1828 14.3183C17.9004 15.3241 17.9004 16.6758 17.1828 17.6818C16.8883 18.0951 16.7945 18.6138 16.9258 19.1043ZM20.7404 14.1046C21.7862 14.1046 22.6339 14.9532 22.6339 16C22.6339 17.0467 21.7862 17.8953 20.7404 17.8953C19.6946 17.8953 18.8469 17.0467 18.8469 16C18.8469 14.9532 19.6946 14.1046 20.7404 14.1046Z" fill="#FF7010"/>
<path d="M14.9606 7.48218L18.3264 9.42727C18.3492 9.28622 18.3591 9.14184 18.3449 8.9949C18.2617 8.13119 18.5653 7.28371 19.1785 6.66984C19.7918 6.05598 20.6371 5.75237 21.502 5.83506C22.2172 5.90564 22.9051 5.50897 23.2043 4.85132C23.5641 4.06111 24.2508 3.47931 25.0883 3.25468C25.9262 3.03005 26.811 3.19017 27.5168 3.69436C27.6368 3.78003 27.7666 3.84364 27.9 3.89438V0C22.4533 0.202316 17.6961 3.14139 14.9606 7.48218Z" fill="#FF7010"/>
<path d="M42.642 8.521L39.2736 10.4676C39.3842 10.5579 39.5041 10.6386 39.6383 10.6998C40.4274 11.0594 41.0086 11.7465 41.2332 12.5848C41.4578 13.4233 41.2977 14.3095 40.7938 15.0161C40.3742 15.6047 40.3742 16.3957 40.7938 16.9841C41.2977 17.6909 41.4578 18.5771 41.2332 19.4156C41.0086 20.2539 40.4274 20.941 39.6383 21.3007C39.5041 21.3619 39.3842 21.4426 39.2737 21.5328L42.642 23.4794C43.8261 21.2453 44.5 18.7005 44.5 16.0002C44.5 13.2999 43.8261 10.7551 42.642 8.521Z" fill="#FF7010"/>
<path d="M19.5395 23.12C19.4906 23.6257 19.6684 24.1217 20.0274 24.4808C20.3859 24.84 20.8852 25.0163 21.3863 24.9692C22.6192 24.8495 23.7852 25.5267 24.2965 26.6509C24.507 27.113 24.9086 27.4536 25.3988 27.5851C25.8883 27.7165 26.407 27.6229 26.8199 27.3277C27.1503 27.0918 27.5194 26.9412 27.9 26.8604V17.04L19.4036 21.9501C19.524 22.3203 19.5784 22.7156 19.5395 23.12ZM22.9804 21.7786C23.5032 20.8721 24.6613 20.5615 25.567 21.0849C26.4726 21.6083 26.7829 22.7675 26.2601 23.674C25.7372 24.5805 24.5791 24.8911 23.6734 24.3677C22.7678 23.8443 22.4575 22.6852 22.9804 21.7786Z" fill="#FF7010"/>
<path d="M31.6011 27.5851C32.0914 27.4536 32.4929 27.1132 32.7035 26.6509C33.2152 25.5264 34.3914 24.8517 35.6133 24.9692C36.1176 25.0159 36.614 24.8398 36.9726 24.4808C37.3316 24.1217 37.5093 23.6257 37.4605 23.1202C37.4216 22.7157 37.476 22.3204 37.5964 21.9501L29.1 17.04V26.8604C29.4805 26.9412 29.8497 27.0917 30.1801 27.3277C30.5933 27.6231 31.1121 27.7167 31.6011 27.5851ZM31.433 21.0849C32.3386 20.5615 33.4968 20.8721 34.0196 21.7786C34.5425 22.6851 34.2322 23.8443 33.3265 24.3677C32.4209 24.8911 31.2628 24.5805 30.7399 23.674C30.2171 22.7675 30.5274 21.6083 31.433 21.0849Z" fill="#FF7010"/>
<path d="M40.0742 12.8956C39.9429 12.4051 39.6027 12.003 39.1406 11.7926C38.7713 11.6241 38.4565 11.3794 38.1963 11.0898L29.6998 15.9999L38.1964 20.91C38.4565 20.6206 38.7713 20.3759 39.1406 20.2074C39.6027 19.9969 39.9429 19.5948 40.0742 19.1042C40.2054 18.6137 40.1117 18.0951 39.8172 17.6816C39.0996 16.6758 39.0996 15.3241 39.8172 14.3181C40.1117 13.9048 40.2054 13.3861 40.0742 12.8956ZM36.2595 17.8952C35.2138 17.8952 34.366 17.0467 34.366 15.9999C34.366 14.9532 35.2138 14.1046 36.2595 14.1046C37.3053 14.1046 38.1531 14.9532 38.1531 15.9999C38.1531 17.0467 37.3053 17.8952 36.2595 17.8952Z" fill="#FF7010"/>
<path d="M37.4605 8.88015C37.5093 8.3744 37.3316 7.87842 36.9726 7.51929C36.614 7.16016 36.1144 6.98265 35.6136 7.03093C34.3812 7.14921 33.2148 6.47357 32.7035 5.34926C32.4929 4.8871 32.0914 4.54654 31.6011 4.41497C31.1117 4.28379 30.5933 4.37724 30.1801 4.67244C29.8497 4.90836 29.4805 5.05887 29.1 5.13963V14.9601L37.5964 10.05C37.476 9.67979 37.4216 9.28454 37.4605 8.88015ZM34.0196 10.2215C33.4968 11.128 32.3386 11.4386 31.433 10.9152C30.5274 10.3918 30.2171 9.23266 30.7399 8.32614C31.2628 7.41963 32.4209 7.10904 33.3265 7.63241C34.2322 8.15578 34.5425 9.31494 34.0196 10.2215Z" fill="#FF7010"/>
</g>
<path d="M11.8887 58V45.3174H1.94824V58H3.53906V46.7588H10.3242V58H11.8887ZM16.6172 58L21.3369 50.9336H21.4775V58H22.9893V48.5254H21.4775L16.7578 55.5918H16.6172V48.5254H15.1055V58H16.6172ZM35.0918 60.5049V56.7344H33.5801V48.5254H32.0684V56.7344H27.5156V48.5254H26.0039V58H33.668V60.5049H35.0918ZM46.166 60.5049V56.7344H44.6543V48.5254H43.1426V56.7344H38.5898V48.5254H37.0781V58H44.7422V60.5049H46.166ZM51.0791 56.8398C49.9805 56.8398 49.1631 56.2773 49.1631 55.3105C49.1631 54.3613 49.7959 53.8604 51.2373 53.7637L53.7861 53.5967V54.4668C53.7861 55.8203 52.6348 56.8398 51.0791 56.8398ZM50.7979 58.167C52.0635 58.167 53.1006 57.6133 53.7158 56.6025H53.8564V58H55.2979V51.5137C55.2979 49.5449 54.0059 48.3584 51.6943 48.3584C49.6729 48.3584 48.1787 49.3604 47.9766 50.8809H49.5059C49.7168 50.1338 50.5078 49.7031 51.6416 49.7031C53.0566 49.7031 53.7861 50.3447 53.7861 51.5137V52.375L51.0527 52.542C48.8467 52.6738 47.5986 53.6494 47.5986 55.3457C47.5986 57.0771 48.9609 58.167 50.7979 58.167Z" fill="#191919"/>
<defs>
<clipPath id="clip0_12336_3047">
<rect width="32" height="32" fill="white" transform="translate(12.5)"/>
</clipPath>
</defs>
</svg>
