<svg width="77" height="64" viewBox="0 0 77 64" fill="none" xmlns="http://www.w3.org/2000/svg">
<g clip-path="url(#clip0_12336_3080)">
<path d="M40.1691 15.7922C39.7236 15.3461 39.1241 15.0962 38.4995 15.0962C37.875 15.0962 37.2754 15.3461 36.8299 15.7922C36.8299 15.7922 35.5191 17.1281 35.1455 17.4287L36.2925 32.0001H40.7164L41.8633 17.4387C41.6471 17.3185 40.1691 15.7922 40.1691 15.7922Z" fill="#FF7010"/>
<path d="M31.8751 15.642C31.4503 15.2183 30.8856 14.9714 30.2916 14.9498C29.6976 14.9282 29.117 15.1333 28.6636 15.5251L26.3698 17.4889L28.5784 29.9496C28.6799 30.5224 28.9758 31.0407 29.4143 31.4137C29.8528 31.7868 30.406 31.9908 30.9772 31.9902H34.9817L33.8413 17.5122C33.5824 17.4121 31.8751 15.642 31.8751 15.642Z" fill="#FF7010"/>
<path d="M37.9702 2.68013C38.1394 2.74855 38.3191 2.78586 38.5011 2.79034C38.7288 2.79599 38.9541 2.74105 39.1546 2.63095C39.3552 2.52085 39.5241 2.35938 39.6448 2.16247C39.7947 1.93544 39.8745 1.66795 39.8742 1.39432C39.8734 1.18167 39.8251 0.971984 39.7329 0.781202C39.6408 0.590421 39.5071 0.423559 39.3422 0.293291C39.1773 0.163024 38.9854 0.0727779 38.7811 0.0294094C38.5769 -0.013959 38.3656 -0.0093095 38.1633 0.0430051C37.9611 0.0953198 37.7732 0.193924 37.6139 0.331325C37.4547 0.468727 37.3283 0.641312 37.2443 0.835971C37.1602 1.03063 37.1209 1.24224 37.1291 1.45473C37.1374 1.66722 37.193 1.87499 37.2919 2.06227C37.4455 2.33837 37.6838 2.55543 37.9702 2.68013Z" fill="#FF7010"/>
<path d="M46.4085 8.51155L46.0349 8.42137L45.9432 8.04064C45.3566 5.7028 43.2691 3.80247 40.5656 3.15455C40.3205 3.47119 40.0054 3.72429 39.6461 3.8932C39.2867 4.0621 38.8933 4.14201 38.4978 4.12642C37.4 4.12642 36.4923 3.20799 36.4399 3.14453C33.7396 3.79245 31.6522 5.67274 31.0689 8.02394L30.9804 8.42137L30.6036 8.52157C29.0255 8.94102 27.6649 9.96041 26.8013 11.3704C25.9378 12.7803 25.6367 14.4737 25.9601 16.1029L27.8181 14.5098C28.5202 13.9041 29.4186 13.5869 30.3379 13.6202C31.2572 13.6536 32.1313 14.0351 32.7893 14.6901L34.4278 16.3066L35.9287 14.8271C36.2652 14.4835 36.666 14.2125 37.1074 14.03C37.5488 13.8476 38.0216 13.7575 38.4978 13.765C39.4652 13.7713 40.3923 14.1605 41.0834 14.8504L42.5515 16.3133L44.226 14.6734C44.8848 14.0249 45.7565 13.6488 46.6719 13.6179C47.5873 13.587 48.4814 13.9037 49.1808 14.5064L51.0356 16.1029C51.3649 14.4743 51.0685 12.7791 50.2076 11.3667C49.3467 9.95432 47.9869 8.93237 46.4085 8.51155Z" fill="#FF7010"/>
<path d="M45.1338 15.6216C45.1338 15.6216 43.3708 17.405 43.1676 17.4852L42.0239 31.9898H46.035C46.6062 31.9904 47.1594 31.7864 47.5979 31.4134C48.0364 31.0403 48.3323 30.5221 48.4337 29.9492L49.5315 23.7573L50.6228 17.4885L48.3289 15.5147C47.8774 15.1271 47.3012 14.9235 46.7112 14.9432C46.1212 14.9629 45.5593 15.2046 45.1338 15.6216Z" fill="#FF7010"/>
</g>
<path d="M4.25781 53.333L4.6709 46.7412H9.52246V56.5762H3.37012V56.4707C3.99414 55.7236 4.16992 54.7656 4.25781 53.333ZM1.9375 58H11.2188V60.5049H12.6865V56.5762H11.1045V45.3174H3.25586L2.77246 53.2979C2.67578 54.959 2.33301 56.084 1.41016 56.5762H0.469727V60.5049H1.9375V58ZM18.5928 49.6943C20.0957 49.6943 21.0977 50.8018 21.1328 52.4805H15.9121C16.0264 50.8018 17.0811 49.6943 18.5928 49.6943ZM21.0889 55.5479C20.6934 56.3828 19.8672 56.8311 18.6455 56.8311C17.0371 56.8311 15.9912 55.6445 15.9121 53.7725V53.7021H22.7236V53.1221C22.7236 50.1777 21.168 48.3584 18.6104 48.3584C16.0088 48.3584 14.3389 50.292 14.3389 53.2715C14.3389 56.2686 15.9824 58.167 18.6104 58.167C20.6846 58.167 22.1436 57.1738 22.6006 55.5479H21.0889ZM33.1123 51.4258C32.8486 49.7383 31.4424 48.3584 29.1396 48.3584C26.4854 48.3584 24.7979 50.2744 24.7979 53.2275C24.7979 56.2422 26.4941 58.167 29.1484 58.167C31.4248 58.167 32.8398 56.8838 33.1123 55.1436H31.583C31.3018 56.2158 30.4141 56.8047 29.1396 56.8047C27.4521 56.8047 26.3623 55.416 26.3623 53.2275C26.3623 51.083 27.4346 49.7207 29.1396 49.7207C30.502 49.7207 31.3369 50.4854 31.583 51.4258H33.1123ZM39.2998 49.6943C40.8027 49.6943 41.8047 50.8018 41.8398 52.4805H36.6191C36.7334 50.8018 37.7881 49.6943 39.2998 49.6943ZM41.7959 55.5479C41.4004 56.3828 40.5742 56.8311 39.3525 56.8311C37.7441 56.8311 36.6982 55.6445 36.6191 53.7725V53.7021H43.4307V53.1221C43.4307 50.1777 41.875 48.3584 39.3174 48.3584C36.7158 48.3584 35.0459 50.292 35.0459 53.2715C35.0459 56.2686 36.6895 58.167 39.3174 58.167C41.3916 58.167 42.8506 57.1738 43.3076 55.5479H41.7959ZM50.585 48.3584C49.293 48.3584 48.1592 49.0176 47.5527 50.1074H47.4121V48.5254H45.9707V61.1641H47.4824V56.5762H47.623C48.1416 57.5781 49.2314 58.167 50.585 58.167C52.9932 58.167 54.5664 56.2246 54.5664 53.2627C54.5664 50.2832 53.002 48.3584 50.585 48.3584ZM50.2246 56.8047C48.5195 56.8047 47.4385 55.4336 47.4385 53.2627C47.4385 51.083 48.5195 49.7207 50.2334 49.7207C51.9648 49.7207 53.002 51.0479 53.002 53.2627C53.002 55.4775 51.9648 56.8047 50.2246 56.8047ZM63.3643 48.5254H55.7002V49.791H58.7764V58H60.2881V49.791H63.3643V48.5254ZM73.8584 58H75.3701V48.5254H73.8584V58ZM68.9541 52.832C70.1934 52.832 71.002 53.5967 71.002 54.7832C71.002 55.9609 70.2021 56.7344 68.9541 56.7344H67.082V52.832H68.9541ZM65.5703 58H68.9541C71.125 58 72.5137 56.752 72.5137 54.7832C72.5137 52.8145 71.125 51.5664 68.9541 51.5664H67.082V48.5254H65.5703V58Z" fill="#191919"/>
<defs>
<clipPath id="clip0_12336_3080">
<rect width="32" height="32" fill="white" transform="translate(22.5)"/>
</clipPath>
</defs>
</svg>
