<svg width="58" height="64" viewBox="0 0 58 64" fill="none" xmlns="http://www.w3.org/2000/svg">
<g clip-path="url(#clip0_12336_3109)">
<mask id="mask0_12336_3109" style="mask-type:alpha" maskUnits="userSpaceOnUse" x="13" y="0" width="17" height="32">
<rect x="13.5" width="16.4" height="32" fill="#C4C4C4"/>
</mask>
<g mask="url(#mask0_12336_3109)">
<path d="M26.8399 28.8447C26.5891 28.8447 26.3367 28.812 26.0883 28.7454C25.2508 28.5209 24.5641 27.9391 24.2043 27.1491C23.9047 26.4907 23.2184 26.0962 22.5016 26.165C21.636 26.2467 20.7914 25.9439 20.1785 25.3302C19.5653 24.7163 19.2617 23.8689 19.3449 23.005C19.3591 22.8581 19.3492 22.7138 19.3264 22.5728L15.9606 24.5179C18.6961 28.8587 23.4533 31.7977 28.9 32V28.1057C28.7666 28.1564 28.6368 28.22 28.5168 28.3057C28.0203 28.6603 27.4348 28.8447 26.8399 28.8447Z" fill="#FF7010"/>
<path d="M26.3988 4.41489C25.9085 4.54646 25.507 4.88682 25.2964 5.34917C24.7847 6.47387 23.6085 7.1503 22.3867 7.03085C21.8808 6.98217 21.3859 7.15988 21.0273 7.5192C20.6683 7.87833 20.4906 8.37431 20.5394 8.87987C20.5783 9.28433 20.524 9.67963 20.4036 10.0499L28.9 14.96V5.13955C28.5194 5.05878 28.1502 4.90827 27.8199 4.67236C27.407 4.37715 26.8886 4.2839 26.3988 4.41489ZM26.5669 10.9151C25.6613 11.4385 24.5032 11.1279 23.9803 10.2214C23.4575 9.31486 23.7677 8.1557 24.6734 7.63232C25.5791 7.10895 26.7371 7.41955 27.26 8.32605C27.7829 9.23257 27.4726 10.3917 26.5669 10.9151Z" fill="#FF7010"/>
<path d="M18.3617 21.3005C17.5727 20.941 16.9914 20.2539 16.7668 19.4156C16.5422 18.5771 16.7023 17.6909 17.2063 16.9843C17.6258 16.3957 17.6258 15.6047 17.2063 15.0163C16.7023 14.3095 16.5422 13.4233 16.7668 12.5848C16.9914 11.7465 17.5727 11.0594 18.3617 10.6997C18.4959 10.6385 18.6158 10.5578 18.7264 10.4676L15.358 8.521C14.1739 10.7551 13.5 13.2999 13.5 16.0002C13.5 18.7005 14.1739 21.2453 15.358 23.4794L18.7265 21.5328C18.6159 21.4425 18.4959 21.3618 18.3617 21.3005Z" fill="#FF7010"/>
<path d="M17.9258 19.1043C18.0571 19.5948 18.3973 19.9969 18.8594 20.2073C19.2287 20.3758 19.5435 20.6205 19.8037 20.91L28.3002 16L19.8037 11.0898C19.5435 11.3793 19.2287 11.624 18.8594 11.7924C18.3973 12.003 18.0571 12.4051 17.9258 12.8956C17.7946 13.3861 17.8883 13.9048 18.1829 14.3183C18.9004 15.3241 18.9004 16.6758 18.1829 17.6818C17.8883 18.0951 17.7946 18.6138 17.9258 19.1043ZM21.7405 14.1046C22.7862 14.1046 23.634 14.9532 23.634 16C23.634 17.0467 22.7862 17.8953 21.7405 17.8953C20.6947 17.8953 19.8469 17.0467 19.8469 16C19.8469 14.9532 20.6947 14.1046 21.7405 14.1046Z" fill="#FF7010"/>
<path d="M15.9606 7.48218L19.3264 9.42727C19.3492 9.28622 19.3591 9.14184 19.3449 8.9949C19.2617 8.13119 19.5653 7.28371 20.1785 6.66984C20.7918 6.05598 21.6371 5.75237 22.502 5.83506C23.2172 5.90564 23.9051 5.50897 24.2043 4.85132C24.5641 4.06111 25.2508 3.47931 26.0883 3.25468C26.9262 3.03005 27.811 3.19017 28.5168 3.69436C28.6368 3.78003 28.7666 3.84364 28.9 3.89438V0C23.4533 0.202316 18.6961 3.14139 15.9606 7.48218Z" fill="#FF7010"/>
<path d="M20.5394 23.12C20.4906 23.6257 20.6683 24.1217 21.0273 24.4808C21.3859 24.84 21.8851 25.0163 22.3863 24.9692C23.6191 24.8495 24.7851 25.5267 25.2964 26.6509C25.507 27.113 25.9085 27.4536 26.3988 27.5851C26.8882 27.7165 27.407 27.6229 27.8199 27.3277C28.1502 27.0918 28.5194 26.9412 28.9 26.8604V17.04L20.4036 21.9501C20.524 22.3203 20.5783 22.7156 20.5394 23.12ZM23.9803 21.7786C24.5032 20.8721 25.6613 20.5615 26.5669 21.0849C27.4726 21.6083 27.7829 22.7675 27.26 23.674C26.7371 24.5805 25.5791 24.8911 24.6734 24.3677C23.7677 23.8443 23.4575 22.6852 23.9803 21.7786Z" fill="#FF7010"/>
</g>
<path d="M43.4174 26.2613C42.7074 24.896 42.63 23.292 43.2074 21.8607C43.8347 20.3027 44.1667 18.506 44.1667 16.6667C44.1667 13.522 43.2894 11.5913 42.44 9.724C41.6807 8.05333 40.968 6.45667 40.856 3.99533C41.2134 3.98267 41.5 3.69333 41.5 3.33333C41.5 2.96533 41.202 2.66667 40.8334 2.66667V0.666667C40.8334 0.298667 40.5354 0 40.1667 0H34.8334C34.4647 0 34.1667 0.298667 34.1667 0.666667V2.66667C33.798 2.66667 33.5 2.96533 33.5 3.33333C33.5 3.69333 33.7867 3.98267 34.144 3.99533C34.032 6.45667 33.3194 8.054 32.56 9.724C31.7114 11.5913 30.8334 13.522 30.8334 16.6667C30.8334 18.506 31.1654 20.3027 31.7927 21.8613C32.3694 23.2933 32.2927 24.8973 31.5827 26.262C31.0927 27.2033 30.8334 28.2653 30.8334 29.3333C30.8334 30.0827 30.9634 30.83 31.22 31.5553C31.314 31.822 31.566 32 31.848 32H43.1507C43.4334 32 43.6847 31.822 43.7787 31.556C44.0367 30.8313 44.1667 30.0833 44.1667 29.3333C44.1667 28.2653 43.908 27.2033 43.4174 26.2613C43.4174 26.262 43.4174 26.262 43.4174 26.2613ZM39.514 4C39.5334 4.47467 39.58 4.91133 39.6374 5.33333H35.3634C35.4207 4.91133 35.4674 4.47467 35.4867 4H39.514ZM41.9654 12C42.1294 12.424 42.2774 12.8653 42.4047 13.3333H32.5954C32.7227 12.8653 32.8707 12.424 33.0347 12H41.9654ZM42.4074 20C42.2874 20.46 42.15 20.9087 41.9807 21.3333H33.02C32.8507 20.9087 32.7134 20.46 32.5934 20H42.4074Z" fill="#FF7010"/>
</g>
<path d="M3.6084 50.8896V45.3174H2.02637V58H3.6084V52.1553H3.97754L9.70801 58H11.7998L5.33984 51.4258L11.29 45.3174H9.30371L3.97754 50.8896H3.6084ZM17.0117 58.167C19.71 58.167 21.3799 56.3037 21.3799 53.2627C21.3799 50.2129 19.71 48.3584 17.0117 48.3584C14.3135 48.3584 12.6436 50.2129 12.6436 53.2627C12.6436 56.3037 14.3135 58.167 17.0117 58.167ZM17.0117 56.8047C15.2188 56.8047 14.208 55.5039 14.208 53.2627C14.208 51.0127 15.2188 49.7207 17.0117 49.7207C18.8047 49.7207 19.8154 51.0127 19.8154 53.2627C19.8154 55.5039 18.8047 56.8047 17.0117 56.8047ZM25.4316 58V51.2588H25.5986L28.5957 57.7363H29.7734L32.7705 51.2588H32.9375V58H34.458V48.5254H32.6914L29.29 55.873H29.1494L25.7568 48.5254H23.9199V58H25.4316ZM41.4189 56.8047C39.5996 56.8047 38.5713 55.5391 38.5713 53.3506C38.5713 51.2676 39.5996 50.0723 41.4189 50.0723C43.2383 50.0723 44.2666 51.2676 44.2666 53.3506C44.2666 55.5391 43.2383 56.8047 41.4189 56.8047ZM38.2988 50.4678C38.5889 48.1299 39.3184 46.7852 41.8408 46.6709L42.8076 46.627C44.6709 46.5479 45.207 46.0645 45.207 46.0645V44.7109C45.1982 44.7197 44.2227 45.1504 42.7373 45.2207L41.7881 45.2646C38.0176 45.4316 37.0068 48.0859 37.0068 52.4453C37.0068 56.3301 38.6152 58.167 41.4189 58.167C44.1436 58.167 45.8311 56.3389 45.8311 53.3506C45.8311 50.459 44.1436 48.7188 41.6475 48.7188C40.0566 48.7188 39.0107 49.4658 38.4395 50.4678H38.2988ZM52.2734 58.167C54.9717 58.167 56.6416 56.3037 56.6416 53.2627C56.6416 50.2129 54.9717 48.3584 52.2734 48.3584C49.5752 48.3584 47.9053 50.2129 47.9053 53.2627C47.9053 56.3037 49.5752 58.167 52.2734 58.167ZM52.2734 56.8047C50.4805 56.8047 49.4697 55.5039 49.4697 53.2627C49.4697 51.0127 50.4805 49.7207 52.2734 49.7207C54.0664 49.7207 55.0771 51.0127 55.0771 53.2627C55.0771 55.5039 54.0664 56.8047 52.2734 56.8047Z" fill="#191919"/>
<defs>
<clipPath id="clip0_12336_3109">
<rect width="32" height="32" fill="white" transform="translate(13.5)"/>
</clipPath>
</defs>
</svg>
