<svg width="57" height="64" viewBox="0 0 57 64" fill="none" xmlns="http://www.w3.org/2000/svg">
<g clip-path="url(#clip0_12336_3133)">
<path d="M44.4807 10.4214C44.4487 7.97792 42.4575 6 40.0144 6C37.8318 6 36.011 7.57913 35.6245 9.65834C34.8572 9.99896 33.5244 10.5437 32.7302 10.6763C31.7727 10.836 30.6155 10.884 29.2908 10.8187C26.7605 10.694 24.2344 9.86735 21.9853 8.42748C19.1553 6.61593 16.7449 6.192 14.1697 7.05292C13.1709 7.38688 12.5 8.32963 12.5 9.3993C12.5 9.74584 12.6877 10.0648 12.9895 10.2306C13.3345 10.4199 13.657 10.5836 13.969 10.7416C15.6592 11.5981 16.5903 12.0698 17.2073 14.6696C17.6682 16.6108 18.4746 18.2379 19.6045 19.5055C20.084 20.0436 20.623 20.5183 21.2165 20.9269H34.0471C35.9853 19.4666 37.1719 17.2513 37.498 14.4583C37.6938 12.7816 37.5293 11.3198 37.4145 10.5994C37.4194 10.5607 37.4226 10.5215 37.4226 10.4813C37.4226 9.054 38.5852 7.89288 40.0144 7.89288C41.4433 7.89288 42.6062 9.054 42.6062 10.4813C42.6062 10.5264 42.6094 10.5715 42.6157 10.6161C42.6169 10.6255 42.7204 11.564 42.1423 12.2376C41.6684 12.7897 40.8313 13.0697 39.6543 13.0697C39.1365 13.0697 38.7168 13.4934 38.7168 14.0162C38.7168 14.5387 39.1365 14.9626 39.6543 14.9626C41.3996 14.9626 42.7136 14.4628 43.5593 13.4769C44.5967 12.2682 44.5205 10.7988 44.4807 10.4214Z" fill="#FF7010"/>
<path d="M21.2217 22.8193C21.1694 23.0232 21.1418 23.2369 21.1418 23.4567V25.0533C21.1418 25.5758 21.5615 25.9998 22.0791 25.9998H33.2441C33.7617 25.9998 34.1816 25.5758 34.1816 25.0533V23.4567C34.1816 23.2369 34.1538 23.0232 34.1016 22.8193H21.2217Z" fill="#FF7010"/>
</g>
<path d="M7.22168 58.2988C9.91992 58.2988 11.9238 56.7959 12.3457 54.4668H10.7373C10.333 55.9346 8.98828 56.8398 7.22168 56.8398C4.77832 56.8398 3.24902 54.8447 3.24902 51.6631C3.24902 48.4814 4.77832 46.4775 7.21289 46.4775C8.96191 46.4775 10.3154 47.5059 10.7373 49.1406H12.3457C11.9678 46.6973 9.88477 45.0186 7.21289 45.0186C3.76758 45.0186 1.62305 47.5674 1.62305 51.6631C1.62305 55.75 3.77637 58.2988 7.22168 58.2988ZM18.876 58.167C21.5742 58.167 23.2441 56.3037 23.2441 53.2627C23.2441 50.2129 21.5742 48.3584 18.876 48.3584C16.1777 48.3584 14.5078 50.2129 14.5078 53.2627C14.5078 56.3037 16.1777 58.167 18.876 58.167ZM18.876 56.8047C17.083 56.8047 16.0723 55.5039 16.0723 53.2627C16.0723 51.0127 17.083 49.7207 18.876 49.7207C20.6689 49.7207 21.6797 51.0127 21.6797 53.2627C21.6797 55.5039 20.6689 56.8047 18.876 56.8047ZM26.25 61.4277C27.9287 61.4277 28.6846 60.7773 29.4932 58.5801L33.1934 48.5254H31.585L28.9922 56.3213H28.8516L26.25 48.5254H24.6152L28.1221 58.0088L27.9463 58.5713C27.5508 59.7139 27.0762 60.127 26.2061 60.127C25.9951 60.127 25.7578 60.1182 25.5732 60.083V61.375C25.7842 61.4102 26.0479 61.4277 26.25 61.4277ZM42.8789 51.4258C42.6152 49.7383 41.209 48.3584 38.9062 48.3584C36.252 48.3584 34.5645 50.2744 34.5645 53.2275C34.5645 56.2422 36.2607 58.167 38.915 58.167C41.1914 58.167 42.6064 56.8838 42.8789 55.1436H41.3496C41.0684 56.2158 40.1807 56.8047 38.9062 56.8047C37.2188 56.8047 36.1289 55.416 36.1289 53.2275C36.1289 51.083 37.2012 49.7207 38.9062 49.7207C40.2686 49.7207 41.1035 50.4854 41.3496 51.4258H42.8789ZM53.5664 58H55.0781V48.5254H53.5664V58ZM48.6621 52.832C49.9014 52.832 50.71 53.5967 50.71 54.7832C50.71 55.9609 49.9102 56.7344 48.6621 56.7344H46.79V52.832H48.6621ZM45.2783 58H48.6621C50.833 58 52.2217 56.752 52.2217 54.7832C52.2217 52.8145 50.833 51.5664 48.6621 51.5664H46.79V48.5254H45.2783V58Z" fill="#191919"/>
<defs>
<clipPath id="clip0_12336_3133">
<rect width="32" height="32" fill="white" transform="translate(12.5)"/>
</clipPath>
</defs>
</svg>
