<svg width="75" height="64" viewBox="0 0 75 64" fill="none" xmlns="http://www.w3.org/2000/svg">
<path d="M38.6053 6.51327V3.68142L44.5987 2.25693C45.149 2.12614 45.4814 1.56538 45.332 1.01987L45.3069 0.928159C45.1649 0.40989 44.6388 0.096457 44.1154 0.218419L37.1678 1.83755C36.7151 1.94305 36.3948 2.3466 36.3948 2.81145V6.51327H29.1667C28.6144 6.51327 28.1667 6.96099 28.1667 7.51327V11.115H46.8334V7.51327C46.8334 6.96099 46.3856 6.51327 45.8334 6.51327H38.6053Z" fill="#FF7010"/>
<path d="M28.2527 12.8848L30.7948 30.1591C30.9422 31.2211 31.9001 31.9998 32.9685 31.9998H41.9211C43.0264 31.9998 43.9474 31.2211 44.0948 30.1591L46.6369 12.8848H28.2527Z" fill="#FF7010"/>
<path d="M11.8447 58V45.3174H10.2627V50.8018H3.30176V45.3174H1.71973V58H3.30176V52.2256H10.2627V58H11.8447ZM17.9795 56.8398C16.8809 56.8398 16.0635 56.2773 16.0635 55.3105C16.0635 54.3613 16.6963 53.8604 18.1377 53.7637L20.6865 53.5967V54.4668C20.6865 55.8203 19.5352 56.8398 17.9795 56.8398ZM17.6982 58.167C18.9639 58.167 20.001 57.6133 20.6162 56.6025H20.7568V58H22.1982V51.5137C22.1982 49.5449 20.9062 48.3584 18.5947 48.3584C16.5732 48.3584 15.0791 49.3604 14.877 50.8809H16.4062C16.6172 50.1338 17.4082 49.7031 18.542 49.7031C19.957 49.7031 20.6865 50.3447 20.6865 51.5137V52.375L17.9531 52.542C15.7471 52.6738 14.499 53.6494 14.499 55.3457C14.499 57.0771 15.8613 58.167 17.6982 58.167ZM31.3125 58H32.8242V48.5254H25.1602V58H26.6719V49.791H31.3125V58ZM37.3418 58L42.0615 50.9336H42.2021V58H43.7139V48.5254H42.2021L37.4824 55.5918H37.3418V48.5254H35.8301V58H37.3418ZM53.5928 48.5254H45.9287V49.791H49.0049V58H50.5166V49.791H53.5928V48.5254ZM57.7236 53.6846L61.5205 58H63.4805L58.9717 52.9902L63.3135 48.5254H61.4766L57.7236 52.4893H57.3105V48.5254H55.7988V58H57.3105V53.6846H57.7236ZM67.1016 58L71.8213 50.9336H71.9619V58H73.4736V48.5254H71.9619L67.2422 55.5918H67.1016V48.5254H65.5898V58H67.1016Z" fill="#191919"/>
</svg>
