<svg width="49" height="64" viewBox="0 0 49 64" fill="none" xmlns="http://www.w3.org/2000/svg">
<g clip-path="url(#clip0_12336_3098)">
<path d="M27.9592 19.3818C23.7035 19.3818 19.6928 20.0078 16.3607 21.1921C15.5382 21.4844 14.682 21.6328 13.816 21.6327C12.7481 21.6327 11.7134 21.4049 10.7689 20.9854C11.5447 23.87 14.1871 26 17.3192 26H32.8109C35.975 26 38.6398 23.8261 39.3847 20.8964C39.0829 20.8954 38.7828 20.8536 38.4925 20.7714C35.2797 19.8624 31.6373 19.3818 27.9592 19.3818Z" fill="#FF7010"/>
<path d="M18.5413 18.2524C19.8704 17.929 21.26 17.6777 22.6871 17.5004C19.9049 14.4597 19.6457 9.3412 22.1837 6C20.1402 6.06286 18.1451 6.39693 16.2875 6.97437C15.3358 7.88611 14.6604 9.06045 14.3597 10.3514C13.5468 13.5583 15.4434 17.1184 18.5413 18.2524Z" fill="#FF7010"/>
<path d="M15.6039 19.1221C12.8217 17.0409 11.3729 13.4435 12.2093 9.85267C12.3149 9.39963 12.4571 8.95812 12.6298 8.53027C11.8926 8.94175 11.1966 9.39948 10.5508 9.90158C6.5424 12.9999 8.82482 19.4418 13.816 19.4297C14.4101 19.4297 15.0137 19.3298 15.6039 19.1221Z" fill="#FF7010"/>
<path d="M34.4456 9.22607C33.4726 9.70452 32.688 10.4897 32.2114 11.4733C31.41 13.127 31.6105 15.0496 32.6766 16.487C32.8414 16.7092 33.4471 17.3774 33.5034 17.529C35.4269 17.774 37.3099 18.147 39.095 18.6521C39.4659 18.7571 39.8652 18.6612 40.1477 18.3991C40.4303 18.137 40.5551 17.7466 40.4772 17.3696C39.8028 14.1095 37.5905 11.259 34.4456 9.22607Z" fill="#FF7010"/>
<path d="M25.6896 17.2381C27.293 17.1552 28.9196 17.1612 30.538 17.2552C29.3139 15.2415 29.1577 12.7143 30.2239 10.5142C30.7036 9.52423 31.3985 8.67316 32.2499 8.01215C30.1113 7.00796 27.6783 6.33791 25.0857 6.09277C21.577 8.98109 21.9069 14.7692 25.6896 17.2381Z" fill="#FF7010"/>
</g>
<path d="M7.08887 58.2988C9.78711 58.2988 11.791 56.7959 12.2129 54.4668H10.6045C10.2002 55.9346 8.85547 56.8398 7.08887 56.8398C4.64551 56.8398 3.11621 54.8447 3.11621 51.6631C3.11621 48.4814 4.64551 46.4775 7.08008 46.4775C8.8291 46.4775 10.1826 47.5059 10.6045 49.1406H12.2129C11.835 46.6973 9.75195 45.0186 7.08008 45.0186C3.63477 45.0186 1.49023 47.5674 1.49023 51.6631C1.49023 55.75 3.64355 58.2988 7.08887 58.2988ZM15.4824 61.4277C17.1611 61.4277 17.917 60.7773 18.7256 58.5801L22.4258 48.5254H20.8174L18.2246 56.3213H18.084L15.4824 48.5254H13.8477L17.3545 58.0088L17.1787 58.5713C16.7832 59.7139 16.3086 60.127 15.4385 60.127C15.2275 60.127 14.9902 60.1182 14.8057 60.083V61.375C15.0166 61.4102 15.2803 61.4277 15.4824 61.4277ZM24.6143 58H36.3213V48.5254H34.8096V56.7344H31.2236V48.5254H29.7119V56.7344H26.126V48.5254H24.6143V58ZM40.8389 58L45.5586 50.9336H45.6992V58H47.2109V48.5254H45.6992L40.9795 55.5918H40.8389V48.5254H39.3271V58H40.8389Z" fill="#191919"/>
<defs>
<clipPath id="clip0_12336_3098">
<rect width="32" height="32" fill="white" transform="translate(8.5)"/>
</clipPath>
</defs>
</svg>
