<svg width="55" height="64" viewBox="0 0 55 64" fill="none" xmlns="http://www.w3.org/2000/svg">
<g clip-path="url(#clip0_12336_3091)">
<path d="M39.4316 18.7355C39.0651 13.9631 36.8431 10.9724 34.8828 8.3333C33.0677 5.89006 31.5 3.78018 31.5 0.667808C31.5 0.417808 31.36 0.189308 31.138 0.074746C30.9153 -0.0405039 30.6477 -0.021629 30.4453 0.125496C27.5013 2.23212 25.0449 5.78268 24.1869 9.17043C23.5912 11.529 23.5124 14.1805 23.5013 15.9317C20.7826 15.351 20.1667 11.2842 20.1602 11.2399C20.1296 11.029 20.0007 10.8454 19.8132 10.7452C19.6237 10.6462 19.4011 10.6391 19.209 10.7341C19.0664 10.8031 15.7096 12.5087 15.5143 19.3188C15.5006 19.5454 15.5 19.7726 15.5 19.9998C15.5 26.6159 20.8834 31.999 27.5 31.999C27.5091 31.9996 27.5189 32.0009 27.5267 31.999C27.5293 31.999 27.5319 31.999 27.5351 31.999C34.1354 31.98 39.5 26.6042 39.5 19.9998C39.5 19.6671 39.4316 18.7355 39.4316 18.7355ZM27.5 30.6657C25.2942 30.6657 23.5 28.7544 23.5 26.405C23.5 26.3249 23.4994 26.2442 23.5052 26.1452C23.5319 25.1544 23.7201 24.478 23.9264 24.0282C24.3132 24.8589 25.0046 25.6225 26.1276 25.6225C26.4961 25.6225 26.7943 25.3243 26.7943 24.9559C26.7943 24.0067 26.8139 22.9117 27.0502 21.9235C27.2605 21.0472 27.7631 20.115 28.3998 19.3677C28.683 20.3377 29.2351 21.1227 29.7742 21.889C30.5457 22.9852 31.3432 24.1187 31.4832 26.0515C31.4916 26.166 31.5001 26.2813 31.5001 26.405C31.5 28.7544 29.7057 30.6657 27.5 30.6657Z" fill="#E23535"/>
</g>
<path d="M9.96582 58H11.627L6.95117 45.3174H5.38672L0.710938 58H2.37207L3.64648 54.3701H8.69141L9.96582 58ZM6.09863 47.3652H6.23926L8.22559 53.0254H4.1123L6.09863 47.3652ZM15.749 53.6846L19.5459 58H21.5059L16.9971 52.9902L21.3389 48.5254H19.502L15.749 52.4893H15.3359V48.5254H13.8242V58H15.3359V53.6846H15.749ZM32.7031 60.5049V56.7344H31.1914V48.5254H29.6797V56.7344H25.127V48.5254H23.6152V58H31.2793V60.5049H32.7031ZM36.2012 58L40.9209 50.9336H41.0615V58H42.5732V48.5254H41.0615L36.3418 55.5918H36.2012V48.5254H34.6895V58H36.2012ZM47.0996 58L51.8193 50.9336H51.96V58H53.4717V48.5254H51.96L47.2402 55.5918H47.0996V48.5254H45.5879V58H47.0996Z" fill="#E23535"/>
<defs>
<clipPath id="clip0_12336_3091">
<rect width="32" height="32" fill="white" transform="translate(11.5)"/>
</clipPath>
</defs>
</svg>
